<svg id="Layer_1" data-name="Layer 1" xmlns="http://www.w3.org/2000/svg" viewBox="0 0 500 500"><defs><style>.cls-1{fill:none;}.cls-2{fill:#fff;}</style></defs><g id="Group_13" data-name="Group 13"><g id="Union_2" data-name="Union 2"><path class="cls-1" d="M121.92,388.64V237.82h66.92V388.64Zm212.3-18.55H205V235.52h-.22l56.85-83.86V108.6s27.37-11.53,39.54,31a78.43,78.43,0,0,1-4.1,54.3h59a22,22,0,0,1,1.15,44.08h-3.48a22.05,22.05,0,0,1,0,44.1H346.8A22,22,0,1,1,348,326.11h-8.07A22,22,0,1,1,341,370.19h-1.15Z"/><path class="cls-2" d="M188.84,388.63V237.81H121.92V388.63h66.92m151-18.55a22,22,0,1,0,0-44.09h6.92a22,22,0,1,0,0-44.08h6.93a22.05,22.05,0,0,0,0-44.1H356a22,22,0,1,0,0-44.09H298.58c-.51,0-1,0-1.52.05a78.45,78.45,0,0,0,4.11-54.29C293.29,112,279,107.11,270,107.11a23.37,23.37,0,0,0-8.32,1.43v43.12l-56.84,83.92.21-.06V370.08H339.88m-151,41.18H121.92A22.63,22.63,0,0,1,99.3,388.63V237.81a22.62,22.62,0,0,1,22.62-22.62h66.92a23.16,23.16,0,0,1,2.36.12L239,144.72V108.54a22.62,22.62,0,0,1,13.84-20.85A45.83,45.83,0,0,1,270,84.48c11.73,0,40.37,4.76,53,48.78a100,100,0,0,1,3.4,37.84H356a44.65,44.65,0,0,1,37.62,68.73,44.63,44.63,0,0,1-5.17,48.06A44.59,44.59,0,0,1,381.56,332a44.66,44.66,0,0,1-41.68,60.73H211.1A22.65,22.65,0,0,1,188.84,411.26Z"/></g></g></svg>