<svg id="Layer_1" data-name="Layer 1" xmlns="http://www.w3.org/2000/svg" viewBox="0 0 500 500"><defs><style>.cls-1,.cls-3{fill:none;}.cls-2{fill:#fff;}.cls-3{stroke:#fff;stroke-linecap:round;stroke-linejoin:round;stroke-width:25px;}</style></defs><g id="Union_3" data-name="Union 3"><path class="cls-1" d="M184.76,370.4l-38-33.43H62.09a30.6,30.6,0,0,1-30.6-30.59V217.05a30.59,30.59,0,0,1,30.6-30.59h65.78l56.89-50a30.59,30.59,0,0,1,50.79,22.94V347.36A30.6,30.6,0,0,1,205,378h-.18A30.05,30.05,0,0,1,184.76,370.4Z"/><path class="cls-2" d="M204.77,355.06c2.55,0,7.83-1.88,7.83-7.71V159.47c0-5.62-4.8-7.71-7.83-7.71a7.17,7.17,0,0,0-4.87,2l-56.9,50-6.5,5.71H62.08a7.65,7.65,0,0,0-7.64,7.64v89.32A7.66,7.66,0,0,0,62.08,314h93.33l6.5,5.7,38,33.37a7.15,7.15,0,0,0,4.87,2h0m0,22.95a30,30,0,0,1-20-7.66l-38-33.38H62.08a30.6,30.6,0,0,1-30.59-30.6V217.05a30.6,30.6,0,0,1,30.59-30.59h65.78l56.9-50a30.06,30.06,0,0,1,20-7.67c15.79,0,30.78,12.36,30.78,30.66V347.35C235.55,365.65,220.55,378,204.77,378Z"/></g><path id="Path_13" data-name="Path 13" class="cls-3" d="M371.14,108.16s75.91,27.74,75.91,138.89-75.91,140.53-75.91,140.53"/><path id="Path_14" data-name="Path 14" class="cls-3" d="M317.89,145.21a106.75,106.75,0,0,1,69,105.93,109.19,109.19,0,0,1-69,107.19"/><path id="Path_15" data-name="Path 15" class="cls-3" d="M277.45,179.53a74,74,0,0,1,51.77,71.9,75.56,75.56,0,0,1-51.77,72.66"/></svg>